<svg width="3141" height="1024" preserveAspectRatio="xMaxYMid slice" viewBox="0 0 3141 1024" fill="none" xmlns="http://www.w3.org/2000/svg">
<g clip-path="url(#clip0)">
<rect width="3141" height="1024" fill="white"/>
<ellipse cx="3107.5" cy="1415.5" rx="792.5" ry="733.5" fill="#3AAFA9"/>
<path d="M2328.72 -64H3218.61L3154.72 369C2911.58 -52.0538 2518.95 267 2234.95 205C1950.95 143 2038.85 -64 2038.85 -64H2328.72Z" fill="#3AAFA9"/>
<path opacity="0.1" d="M2505.6 858.021C2644 858.021 2756.19 853.181 2756.19 847.21C2756.19 841.239 2644 836.398 2505.6 836.398C2367.2 836.398 2255 841.239 2255 847.21C2255 853.181 2367.2 858.021 2505.6 858.021Z" fill="#F50057"/>
<path opacity="0.7" d="M2412.26 767.398H2332.35V838.444H2412.26V767.398Z" fill="#65617D"/>
<path opacity="0.1" d="M2384.77 779.75H2360.48V787.987H2384.77V779.75Z" fill="black"/>
<path opacity="0.1" d="M2381.74 780.781H2363.52V786.959H2381.74V780.781Z" fill="black"/>
<path opacity="0.7" d="M2493.45 767.398H2413.54V838.444H2493.45V767.398Z" fill="#65617D"/>
<path opacity="0.1" d="M2477.96 779.75H2453.67V787.987H2477.96V779.75Z" fill="black"/>
<path opacity="0.1" d="M2474.92 780.781H2456.71V786.959H2474.92V780.781Z" fill="black"/>
<path opacity="0.7" d="M2412.26 694.293H2332.35V765.339H2412.26V694.293Z" fill="#65617D"/>
<path opacity="0.1" d="M2384.77 706.652H2360.48V714.89H2384.77V706.652Z" fill="black"/>
<path opacity="0.1" d="M2381.74 707.68H2363.52V713.858H2381.74V707.68Z" fill="black"/>
<path opacity="0.7" d="M2493.45 694.293H2413.54V765.339H2493.45V694.293Z" fill="#65617D"/>
<path opacity="0.1" d="M2477.96 706.652H2453.67V714.89H2477.96V706.652Z" fill="black"/>
<path opacity="0.1" d="M2474.92 707.68H2456.71V713.858H2474.92V707.68Z" fill="black"/>
<path opacity="0.7" d="M2412.26 620.16H2332.35V691.206H2412.26V620.16Z" fill="#65617D"/>
<path opacity="0.1" d="M2384.77 632.516H2360.48V640.753H2384.77V632.516Z" fill="black"/>
<path opacity="0.1" d="M2381.74 633.543H2363.52V639.721H2381.74V633.543Z" fill="black"/>
<path opacity="0.7" d="M2493.45 620.16H2413.54V691.206H2493.45V620.16Z" fill="#65617D"/>
<path opacity="0.1" d="M2477.96 632.516H2453.67V640.753H2477.96V632.516Z" fill="black"/>
<path opacity="0.1" d="M2474.92 633.543H2456.71V639.721H2474.92V633.543Z" fill="black"/>
<path opacity="0.7" d="M2493.45 546.023H2413.54V617.069H2493.45V546.023Z" fill="#65617D"/>
<path opacity="0.1" d="M2477.96 558.375H2453.67V566.612H2477.96V558.375Z" fill="black"/>
<path opacity="0.1" d="M2474.92 559.406H2456.71V565.584H2474.92V559.406Z" fill="black"/>
<path opacity="0.7" d="M2586.64 766.375H2506.73V837.421H2586.64V766.375Z" fill="#65617D"/>
<path opacity="0.1" d="M2559.15 778.727H2534.86V786.964H2559.15V778.727Z" fill="black"/>
<path opacity="0.1" d="M2556.11 779.758H2537.89V785.936H2556.11V779.758Z" fill="black"/>
<path opacity="0.7" d="M2667.83 766.375H2587.92V837.421H2667.83V766.375Z" fill="#65617D"/>
<path opacity="0.1" d="M2640.34 778.727H2616.04V786.964H2640.34V778.727Z" fill="black"/>
<path opacity="0.1" d="M2637.3 779.758H2619.08V785.936H2637.3V779.758Z" fill="black"/>
<path opacity="0.7" d="M2586.64 693.266H2506.73V764.311H2586.64V693.266Z" fill="#65617D"/>
<path opacity="0.1" d="M2559.15 705.629H2534.86V713.866H2559.15V705.629Z" fill="black"/>
<path opacity="0.1" d="M2556.11 706.656H2537.89V712.834H2556.11V706.656Z" fill="black"/>
<path opacity="0.7" d="M2667.83 693.266H2587.92V764.311H2667.83V693.266Z" fill="#65617D"/>
<path opacity="0.1" d="M2640.34 705.629H2616.04V713.866H2640.34V705.629Z" fill="black"/>
<path opacity="0.1" d="M2637.3 706.656H2619.08V712.834H2637.3V706.656Z" fill="black"/>
<path opacity="0.7" d="M2586.64 619.137H2506.73V690.183H2586.64V619.137Z" fill="#65617D"/>
<path opacity="0.1" d="M2559.15 631.492H2534.86V639.729H2559.15V631.492Z" fill="black"/>
<path opacity="0.1" d="M2556.11 632.52H2537.89V638.697H2556.11V632.52Z" fill="black"/>
<path opacity="0.7" d="M2667.83 619.137H2587.92V690.183H2667.83V619.137Z" fill="#65617D"/>
<path opacity="0.1" d="M2640.34 631.492H2616.04V639.729H2640.34V631.492Z" fill="black"/>
<path opacity="0.1" d="M2637.3 632.52H2619.08V638.697H2637.3V632.52Z" fill="black"/>
<path opacity="0.7" d="M2667.83 545H2587.92V616.046H2667.83V545Z" fill="#65617D"/>
<path opacity="0.1" d="M2640.34 557.352H2616.04V565.589H2640.34V557.352Z" fill="black"/>
<path opacity="0.1" d="M2637.3 558.383H2619.08V564.561H2637.3V558.383Z" fill="black"/>
</g>
<defs>
<clipPath id="clip0">
<rect width="3141" height="1024" fill="white"/>
</clipPath>
</defs>
</svg>
