<svg width="1589" height="1024" preserveAspectRatio="xMaxYMid slice" viewBox="0 0 1589 1024" fill="none" xmlns="http://www.w3.org/2000/svg">
<g clip-path="url(#clip0)">
<rect width="1589" height="1024" fill="white"/>
<ellipse cx="1213" cy="1501" rx="709" ry="656" fill="#3AAFA9"/>
<path opacity="0.1" d="M852.963 920.319C935.786 920.319 1002.93 917.422 1002.93 913.849C1002.93 910.276 935.786 907.379 852.963 907.379C770.141 907.379 703 910.276 703 913.849C703 917.422 770.141 920.319 852.963 920.319Z" fill="#F50057"/>
<path opacity="0.7" d="M797.11 866.09H749.29V908.605H797.11V866.09Z" fill="#65617D"/>
<path opacity="0.1" d="M780.66 873.48H766.122V878.41H780.66V873.48Z" fill="black"/>
<path opacity="0.1" d="M778.842 874.098H767.939V877.795H778.842V874.098Z" fill="black"/>
<path opacity="0.7" d="M845.695 866.09H797.875V908.605H845.695V866.09Z" fill="#65617D"/>
<path opacity="0.1" d="M836.426 873.48H821.888V878.41H836.426V873.48Z" fill="black"/>
<path opacity="0.1" d="M834.609 874.098H823.706V877.795H834.609V874.098Z" fill="black"/>
<path opacity="0.7" d="M797.11 822.34H749.29V864.855H797.11V822.34Z" fill="#65617D"/>
<path opacity="0.1" d="M780.66 829.738H766.122V834.668H780.66V829.738Z" fill="black"/>
<path opacity="0.1" d="M778.842 830.352H767.939V834.049H778.842V830.352Z" fill="black"/>
<path opacity="0.7" d="M845.695 822.34H797.875V864.855H845.695V822.34Z" fill="#65617D"/>
<path opacity="0.1" d="M836.426 829.738H821.888V834.668H836.426V829.738Z" fill="black"/>
<path opacity="0.1" d="M834.609 830.352H823.706V834.049H834.609V830.352Z" fill="black"/>
<path opacity="0.7" d="M797.11 777.98H749.29V820.496H797.11V777.98Z" fill="#65617D"/>
<path opacity="0.1" d="M780.66 785.371H766.122V790.301H780.66V785.371Z" fill="black"/>
<path opacity="0.1" d="M778.842 785.988H767.939V789.685H778.842V785.988Z" fill="black"/>
<path opacity="0.7" d="M845.695 777.98H797.875V820.496H845.695V777.98Z" fill="#65617D"/>
<path opacity="0.1" d="M836.426 785.371H821.888V790.301H836.426V785.371Z" fill="black"/>
<path opacity="0.1" d="M834.609 785.988H823.706V789.685H834.609V785.988Z" fill="black"/>
<path opacity="0.7" d="M845.695 733.613H797.875V776.129H845.695V733.613Z" fill="#65617D"/>
<path opacity="0.1" d="M836.426 741.004H821.888V745.933H836.426V741.004Z" fill="black"/>
<path opacity="0.1" d="M834.609 741.621H823.706V745.318H834.609V741.621Z" fill="black"/>
<path opacity="0.7" d="M901.461 865.477H853.641V907.992H901.461V865.477Z" fill="#65617D"/>
<path opacity="0.1" d="M885.011 872.867H870.474V877.797H885.011V872.867Z" fill="black"/>
<path opacity="0.1" d="M883.194 873.484H872.291V877.181H883.194V873.484Z" fill="black"/>
<path opacity="0.7" d="M950.046 865.477H902.226V907.992H950.046V865.477Z" fill="#65617D"/>
<path opacity="0.1" d="M933.596 872.867H919.059V877.797H933.596V872.867Z" fill="black"/>
<path opacity="0.1" d="M931.779 873.484H920.876V877.181H931.779V873.484Z" fill="black"/>
<path opacity="0.7" d="M901.461 821.727H853.641V864.242H901.461V821.727Z" fill="#65617D"/>
<path opacity="0.1" d="M885.011 829.125H870.474V834.054H885.011V829.125Z" fill="black"/>
<path opacity="0.1" d="M883.194 829.738H872.291V833.435H883.194V829.738Z" fill="black"/>
<path opacity="0.7" d="M950.046 821.727H902.226V864.242H950.046V821.727Z" fill="#65617D"/>
<path opacity="0.1" d="M933.596 829.125H919.059V834.054H933.596V829.125Z" fill="black"/>
<path opacity="0.1" d="M931.779 829.738H920.876V833.435H931.779V829.738Z" fill="black"/>
<path opacity="0.7" d="M901.461 777.367H853.641V819.883H901.461V777.367Z" fill="#65617D"/>
<path opacity="0.1" d="M885.011 784.758H870.474V789.687H885.011V784.758Z" fill="black"/>
<path opacity="0.1" d="M883.194 785.375H872.291V789.072H883.194V785.375Z" fill="black"/>
<path opacity="0.7" d="M950.046 777.367H902.226V819.883H950.046V777.367Z" fill="#65617D"/>
<path opacity="0.1" d="M933.596 784.758H919.059V789.687H933.596V784.758Z" fill="black"/>
<path opacity="0.1" d="M931.779 785.375H920.876V789.072H931.779V785.375Z" fill="black"/>
<path opacity="0.7" d="M950.046 733H902.226V775.516H950.046V733Z" fill="#65617D"/>
<path opacity="0.1" d="M933.596 740.391H919.059V745.32H933.596V740.391Z" fill="black"/>
<path opacity="0.1" d="M931.779 741.008H920.876V744.705H931.779V741.008Z" fill="black"/>
</g>
<defs>
<clipPath id="clip0">
<rect width="1589" height="1024" fill="white"/>
</clipPath>
</defs>
</svg>
