<svg width="1440" height="1024" preserveAspectRatio="xMaxYMid slice" viewBox="0 0 1440 1024" fill="none" xmlns="http://www.w3.org/2000/svg">
<g clip-path="url(#clip0)">
<rect width="1440" height="1024" fill="white"/>
<ellipse cx="1406.5" cy="1415.5" rx="792.5" ry="733.5" fill="#3AAFA9"/>
<path d="M627.719 -64H1517.61L1453.72 369C1210.58 -52.0538 817.948 267 533.948 205C249.948 143 337.851 -64 337.851 -64H627.719Z" fill="#3AAFA9"/>
<path opacity="0.1" d="M948.596 850.021C1087 850.021 1199.19 845.181 1199.19 839.21C1199.19 833.239 1087 828.398 948.596 828.398C810.196 828.398 698 833.239 698 839.21C698 845.181 810.196 850.021 948.596 850.021Z" fill="#F50057"/>
<path opacity="0.7" d="M855.262 759.398H775.352V830.444H855.262V759.398Z" fill="#65617D"/>
<path opacity="0.1" d="M827.773 771.75H803.48V779.987H827.773V771.75Z" fill="black"/>
<path opacity="0.1" d="M824.736 772.781H806.517V778.959H824.736V772.781Z" fill="black"/>
<path opacity="0.7" d="M936.45 759.398H856.54V830.444H936.45V759.398Z" fill="#65617D"/>
<path opacity="0.1" d="M920.961 771.75H896.668V779.987H920.961V771.75Z" fill="black"/>
<path opacity="0.1" d="M917.925 772.781H899.705V778.959H917.925V772.781Z" fill="black"/>
<path opacity="0.7" d="M855.262 686.293H775.352V757.339H855.262V686.293Z" fill="#65617D"/>
<path opacity="0.1" d="M827.773 698.652H803.48V706.89H827.773V698.652Z" fill="black"/>
<path opacity="0.1" d="M824.736 699.68H806.517V705.858H824.736V699.68Z" fill="black"/>
<path opacity="0.7" d="M936.45 686.293H856.54V757.339H936.45V686.293Z" fill="#65617D"/>
<path opacity="0.1" d="M920.961 698.652H896.668V706.89H920.961V698.652Z" fill="black"/>
<path opacity="0.1" d="M917.925 699.68H899.705V705.858H917.925V699.68Z" fill="black"/>
<path opacity="0.7" d="M855.262 612.16H775.352V683.206H855.262V612.16Z" fill="#65617D"/>
<path opacity="0.1" d="M827.773 624.516H803.48V632.753H827.773V624.516Z" fill="black"/>
<path opacity="0.1" d="M824.736 625.543H806.517V631.721H824.736V625.543Z" fill="black"/>
<path opacity="0.7" d="M936.45 612.16H856.54V683.206H936.45V612.16Z" fill="#65617D"/>
<path opacity="0.1" d="M920.961 624.516H896.668V632.753H920.961V624.516Z" fill="black"/>
<path opacity="0.1" d="M917.925 625.543H899.705V631.721H917.925V625.543Z" fill="black"/>
<path opacity="0.7" d="M936.45 538.023H856.54V609.069H936.45V538.023Z" fill="#65617D"/>
<path opacity="0.1" d="M920.961 550.375H896.668V558.612H920.961V550.375Z" fill="black"/>
<path opacity="0.1" d="M917.925 551.406H899.705V557.584H917.925V551.406Z" fill="black"/>
<path opacity="0.7" d="M1029.64 758.375H949.729V829.421H1029.64V758.375Z" fill="#65617D"/>
<path opacity="0.1" d="M1002.15 770.727H977.857V778.964H1002.15V770.727Z" fill="black"/>
<path opacity="0.1" d="M999.113 771.758H980.893V777.936H999.113V771.758Z" fill="black"/>
<path opacity="0.7" d="M1110.83 758.375H1030.92V829.421H1110.83V758.375Z" fill="#65617D"/>
<path opacity="0.1" d="M1083.34 770.727H1059.04V778.964H1083.34V770.727Z" fill="black"/>
<path opacity="0.1" d="M1080.3 771.758H1062.08V777.936H1080.3V771.758Z" fill="black"/>
<path opacity="0.7" d="M1029.64 685.266H949.729V756.311H1029.64V685.266Z" fill="#65617D"/>
<path opacity="0.1" d="M1002.15 697.629H977.857V705.866H1002.15V697.629Z" fill="black"/>
<path opacity="0.1" d="M999.113 698.656H980.893V704.834H999.113V698.656Z" fill="black"/>
<path opacity="0.7" d="M1110.83 685.266H1030.92V756.311H1110.83V685.266Z" fill="#65617D"/>
<path opacity="0.1" d="M1083.34 697.629H1059.04V705.866H1083.34V697.629Z" fill="black"/>
<path opacity="0.1" d="M1080.3 698.656H1062.08V704.834H1080.3V698.656Z" fill="black"/>
<path opacity="0.7" d="M1029.64 611.137H949.729V682.183H1029.64V611.137Z" fill="#65617D"/>
<path opacity="0.1" d="M1002.15 623.492H977.857V631.729H1002.15V623.492Z" fill="black"/>
<path opacity="0.1" d="M999.113 624.52H980.893V630.697H999.113V624.52Z" fill="black"/>
<path opacity="0.7" d="M1110.83 611.137H1030.92V682.183H1110.83V611.137Z" fill="#65617D"/>
<path opacity="0.1" d="M1083.34 623.492H1059.04V631.729H1083.34V623.492Z" fill="black"/>
<path opacity="0.1" d="M1080.3 624.52H1062.08V630.697H1080.3V624.52Z" fill="black"/>
<path opacity="0.7" d="M1110.83 537H1030.92V608.046H1110.83V537Z" fill="#65617D"/>
<path opacity="0.1" d="M1083.34 549.352H1059.04V557.589H1083.34V549.352Z" fill="black"/>
<path opacity="0.1" d="M1080.3 550.383H1062.08V556.561H1080.3V550.383Z" fill="black"/>
</g>
<defs>
<clipPath id="clip0">
<rect width="1440" height="1024" fill="white"/>
</clipPath>
</defs>
</svg>
