<svg width="647" height="368" viewBox="0 0 647 368" fill="none" xmlns="http://www.w3.org/2000/svg">
<g clip-path="url(#clip0)">
<path d="M453.388 198.018C453.342 197.59 453.188 197.181 452.942 196.827C452.696 196.474 452.365 196.188 451.98 195.996C451.655 195.857 451.306 195.786 450.953 195.785C450.601 195.785 450.251 195.855 449.926 195.992C449.601 196.129 449.307 196.33 449.061 196.583C448.816 196.836 448.623 197.136 448.496 197.465L435.935 223.87L433.107 327.841H437.632L439.328 224.102L453.151 199.657C453.401 199.15 453.484 198.576 453.388 198.018V198.018Z" fill="#3F3D56"/>
<path opacity="0.1" d="M655.972 351.329C652.266 354.565 648.276 357.461 644.05 359.98C643.984 360.073 643.91 360.16 643.829 360.24C643.38 360.621 642.847 360.888 642.274 361.02V361.02C628.259 368.824 612.463 372.877 596.418 372.785H285.462C249.832 369.123 228.092 364.269 228.092 358.941C228.092 354.81 241.145 350.962 263.62 347.741C265.95 347.402 268.38 347.074 270.91 346.758C272.468 346.562 274.061 346.374 275.689 346.193L278.455 345.871C280.506 345.637 282.612 345.409 284.772 345.187H284.948L287.21 344.961C289.121 344.763 291.073 344.577 293.063 344.396L294.511 344.266L298.204 343.938C300.602 343.724 303.053 343.518 305.557 343.322C307.634 343.16 309.746 342.998 311.891 342.836C333.642 341.226 358.719 340.011 386.007 339.226L393.801 338.96L396.425 338.904L401.967 338.779L404.19 338.734L406.526 338.689L408.189 338.661L415.993 338.536L420.003 338.48H420.823C430.306 338.367 439.966 338.308 449.803 338.305C469.246 338.305 488.102 338.536 506.07 338.977C516.386 339.226 526.387 339.542 536.073 339.926H536.163C564.091 341.023 589.088 342.639 609.777 344.645L610.156 344.684C615.466 345.198 620.494 345.746 625.211 346.312C629.65 346.843 633.819 347.402 637.687 347.973C639.027 348.171 640.328 348.374 641.595 348.572L641.917 348.628C647.279 349.493 651.984 350.374 655.972 351.329Z" fill="#F50057"/>
<path d="M644.05 359.978C643.984 360.071 643.91 360.158 643.829 360.238C643.381 360.618 642.847 360.886 642.274 361.018V361.018C641.13 361.338 639.954 361.528 638.767 361.583H638.411C637.734 361.605 637.055 361.583 636.381 361.515C635.888 361.444 635.391 361.412 634.893 361.419H634.826C634.102 361.52 633.392 361.696 632.705 361.944C631.174 362.364 629.597 362.588 628.01 362.611H627.445C625.669 362.611 623.871 362.549 622.089 362.56C621.801 362.56 621.524 362.56 621.224 362.56C618.17 362.639 615.133 363.125 612.079 363.176H611.1C608.108 363.103 605.049 362.464 602.668 360.656C602.188 360.339 601.798 359.903 601.537 359.39C601.334 358.85 601.266 358.268 601.339 357.695C601.395 356.672 601.593 355.559 602.362 354.87C602.846 354.499 603.4 354.232 603.991 354.084C605.026 353.751 606.067 353.429 607.102 353.107C608.137 352.785 609.319 352.44 610.433 352.112L610.648 352.045L611.27 351.858L611.671 351.722C612.158 351.566 612.625 351.354 613.063 351.09C613.64 350.725 614.129 350.237 614.494 349.66C614.556 349.558 614.624 349.451 614.68 349.344C614.737 349.236 614.68 349.168 614.641 349.078C614.545 348.372 614.471 347.648 614.347 346.959C612.755 346.59 611.304 345.77 610.167 344.597C609.191 343.63 608.369 342.519 607.73 341.303C606.321 338.658 605.597 335.703 604.545 332.895C602.934 328.623 600.587 324.679 598.222 320.769C596.062 317.163 593.89 313.547 591.436 310.14C589.801 307.88 588.042 305.727 586.425 303.461C581.849 297.138 578.567 289.976 576.765 282.384C576.489 280.928 576.098 279.495 575.594 278.101C574.622 275.728 572.84 273.795 571.46 271.625C569.977 269.286 568.961 266.683 568.468 263.958C568.186 262.409 567.711 260.737 566.167 260.567L566.003 260.889C562.801 267.105 559.516 273.434 554.691 278.508C553.92 279.254 553.214 280.065 552.582 280.932C552.075 281.773 551.621 282.645 551.224 283.542C550.461 285.155 549.447 286.636 548.221 287.933C547.857 288.302 547.459 288.636 547.034 288.933C546.469 289.344 545.84 289.658 545.173 289.865V289.865C544.91 289.946 544.642 290.006 544.37 290.046C544.37 290.114 544.398 290.176 544.404 290.244C544.409 290.312 544.438 290.391 544.449 290.464C545.281 294.985 544.924 299.644 543.414 303.986C543.374 304.122 543.329 304.252 543.278 304.387C543.045 305.02 542.79 305.642 542.515 306.252C541.825 307.75 541.005 309.185 540.36 310.705C540.253 310.965 540.145 311.225 540.049 311.485C537.787 317.536 538.352 324.294 538.058 330.798C538.032 332.22 537.864 333.636 537.555 335.025C537.17 336.59 536.554 338.206 536.215 339.822C535.905 341.034 535.88 342.301 536.141 343.523L536.005 343.574C535.4 343.8 534.784 344.004 534.167 344.196V344.281C534.388 345.546 534.603 346.812 534.823 348.072C535.01 349.157 535.23 350.332 535.988 351.101C536.195 351.271 536.384 351.46 536.554 351.666C537.001 352.367 536.605 353.293 536.69 354.124C536.814 355.299 537.9 356.299 537.73 357.469C537.654 357.819 537.493 358.144 537.263 358.418C537.032 358.692 536.738 358.905 536.407 359.04C536.128 359.166 535.836 359.259 535.536 359.317L535.349 359.356C535.01 359.419 534.671 359.452 534.331 359.486C530.118 359.904 525.848 360.323 521.674 359.611C520.848 359.469 520.028 359.283 519.191 359.215C518.134 359.168 517.074 359.211 516.024 359.345C508.281 360.077 500.494 360.229 492.729 359.797C490.71 359.684 488.391 359.356 487.322 357.633C486.434 356.203 486.756 354.356 487.203 352.723C487.331 352.122 487.563 351.548 487.887 351.027C487.924 350.971 487.966 350.918 488.012 350.869C489.052 349.575 491.009 349.496 492.695 349.547L498.203 349.711C498.746 349.755 499.292 349.713 499.821 349.587C500.714 349.327 501.393 348.615 502.23 348.213C503.282 347.711 504.605 347.648 505.363 346.789L505.459 346.665C505.593 346.483 505.718 346.295 505.833 346.1C505.833 346.061 505.884 346.021 505.912 345.981C505.932 345.946 505.955 345.912 505.98 345.88C506.675 344.964 507.891 344.659 508.881 344.077C509.031 343.99 509.173 343.89 509.305 343.778L509.418 343.676C508.353 342.916 507.423 341.982 506.67 340.913C506.379 340.601 506.164 340.225 506.042 339.817C505.973 339.51 505.996 339.189 506.11 338.896C506.134 338.824 506.164 338.754 506.2 338.687L506.229 338.63C506.613 337.873 507.405 337.189 507.84 336.415C507.857 336.39 507.87 336.364 507.88 336.336C508.479 335.206 508.598 333.454 507.71 332.544C508.163 325.103 510.21 317.853 510.663 310.388C510.844 307.433 510.77 304.467 510.906 301.5C511.041 298.533 511.358 295.657 511.692 292.747C512.438 286.097 514.248 279.581 513.994 272.902C513.972 272.28 513.998 271.656 514.073 271.038C514.07 270.993 514.07 270.947 514.073 270.902C514.254 269.533 514.681 268.209 515.334 266.992C516.154 265.617 517.082 264.309 518.111 263.082C521.589 258.561 525.769 254.041 527.007 248.481C527.646 245.61 529.06 242.983 530.468 240.4C531.3 238.863 532.165 237.287 533.494 236.157C534.214 235.659 534.883 235.091 535.491 234.461C536.418 233.264 536.452 231.608 537.001 230.184C537.283 229.444 537.719 228.766 537.934 228.003C537.934 227.924 537.973 227.85 537.99 227.771C538.116 227.001 538.182 226.223 538.188 225.443C538.188 225.217 538.222 224.997 538.251 224.776C538.581 222.542 539.23 220.367 540.179 218.318C540.298 218.058 540.411 217.792 540.524 217.532C537.915 216.011 535.613 214.016 533.737 211.65C533.101 210.884 532.55 210.053 532.092 209.169C530.927 206.858 530.661 204.225 530.112 201.694C528.8 195.659 525.797 189.974 525.378 183.804C525.254 181.922 525.378 179.979 524.722 178.199C524.542 177.717 524.328 177.249 524.083 176.797C523.981 176.605 523.885 176.413 523.784 176.232L523.67 176.018L523.382 175.452L522.918 175.814C511.348 184.866 499.2 193.156 486.553 200.631L485.467 201.276C484.902 201.548 484.409 201.951 484.03 202.451C483.985 202.524 483.945 202.598 483.906 202.671C483.646 203.208 483.578 203.801 483.34 204.366C482.831 205.66 481.525 206.485 480.19 206.87C477.775 207.49 475.214 207.16 473.036 205.949C472.759 205.807 472.47 205.66 472.221 205.497C471.56 205.863 470.863 206.16 470.14 206.384C467.878 207.039 465.508 207.011 463.167 207.005C460.825 207 458.433 207.005 456.216 207.774C454.734 208.277 453.298 209.107 451.759 209.186C451.582 209.198 451.405 209.198 451.228 209.186C450.351 209.086 449.498 208.836 448.705 208.446L448.242 208.237C448.001 208.123 447.767 207.997 447.54 207.859C447.293 207.706 447.063 207.526 446.856 207.322C446.557 207.022 446.339 206.65 446.223 206.242C446.146 205.948 446.146 205.639 446.223 205.344C446.244 205.212 446.313 205.092 446.415 205.005C446.516 204.945 446.632 204.916 446.749 204.92C447.397 204.913 448.045 204.968 448.683 205.084C449.058 205.135 449.436 205.156 449.814 205.146H450.018C450.351 205.11 450.674 205.007 450.965 204.842C451.257 204.676 451.512 204.453 451.714 204.186C451.776 204.103 451.826 204.012 451.861 203.914V203.914C451.93 203.756 451.964 203.584 451.963 203.412C451.966 203.368 451.966 203.325 451.963 203.282C451.726 203.174 451.488 203.067 451.262 202.937C451.143 202.875 451.03 202.807 450.917 202.739L450.849 202.694C450.646 202.556 450.456 202.399 450.283 202.225C450.173 202.116 450.077 201.995 449.995 201.863C449.845 201.659 449.732 201.429 449.661 201.185V201.185C449.195 201.088 448.713 201.101 448.253 201.225C447.637 201.394 447.014 201.756 446.404 201.88C446.095 201.958 445.771 201.944 445.47 201.841C444.588 201.524 444.277 200.451 444.09 199.53C444.057 199.354 444.017 199.174 443.989 198.993C443.924 198.645 443.924 198.289 443.989 197.942C444.262 197.152 444.784 196.472 445.476 196.004L447.331 194.45L447.467 194.337C447.467 194.184 447.405 194.032 447.382 193.879C447.317 193.53 447.317 193.172 447.382 192.822C447.655 192.034 448.177 191.356 448.869 190.89L452.975 187.437C453.745 186.793 454.582 186.115 455.583 186.047C457.07 185.946 458.258 187.177 459.372 188.166C460.775 189.409 462.477 190.426 464.349 190.551C465.24 190.592 466.132 190.469 466.979 190.189L467.459 190.031C467.358 189.822 467.256 189.613 467.16 189.404C466.996 189.059 466.832 188.709 466.673 188.358C469.083 188.206 471.271 186.884 473.098 185.301C474.925 183.719 476.491 181.849 478.335 180.295C480.326 178.6 482.611 177.34 484.63 175.707C489.324 171.904 492.44 166.315 497.462 162.965C499.204 161.795 501.218 160.863 502.405 159.122C502.773 158.557 503.05 157.992 503.429 157.427C504.634 155.732 506.698 154.952 508.4 153.777C510.103 152.601 511.584 150.878 512.97 149.222C513.954 148.041 514.944 146.86 515.883 145.646C516.748 144.035 517.478 142.351 518.382 140.763C519.15 139.422 520.046 138.158 521.058 136.989C521.289 136.537 521.527 136.085 521.781 135.644C522.036 135.203 522.223 134.904 522.46 134.514C522.624 134.26 522.794 134.017 522.969 133.768C522.454 132.858 521.962 132.073 521.731 131.728L521.617 131.576C521.118 131.045 520.586 130.546 520.023 130.084C519.431 129.994 518.846 129.87 518.269 129.711C514.779 128.755 511.7 126.679 509.507 123.803C507.313 120.926 506.128 117.409 506.132 113.793C506.13 113.776 506.13 113.759 506.132 113.742C506.134 111.153 506.751 108.601 507.931 106.295C508.168 105.832 508.423 105.385 508.7 104.95C508.442 104.869 508.19 104.767 507.948 104.645C507.535 104.442 507.175 104.146 506.896 103.78C506.665 103.455 506.516 103.079 506.46 102.684C506.365 101.753 506.505 100.812 506.868 99.9493C507.022 99.5338 507.198 99.1264 507.394 98.7288C507.409 98.7055 507.422 98.681 507.433 98.6553C509.961 93.5698 515.351 90.445 520.735 90.2247C526.543 89.993 532.199 92.7166 536.78 96.6155C538.147 97.7361 539.37 99.0209 540.422 100.441C542.815 103.763 543.895 108.013 544.212 112.222C544.33 113.524 544.308 114.835 544.144 116.133C544.084 116.595 543.989 117.052 543.861 117.5C543.787 117.766 543.691 118.031 543.589 118.297C543.488 118.562 543.425 118.681 543.335 118.862V118.89C543.25 119.071 543.154 119.24 543.058 119.41L543.007 119.483L542.933 119.602C542.979 119.709 543.03 119.822 543.08 119.93C543.131 120.037 543.177 120.139 543.233 120.241H543.301C544.432 120.331 545.478 120.489 546.632 120.58C547.175 120.605 547.713 120.689 548.238 120.828C549.369 121.167 550.223 121.992 551.174 122.659C553.526 124.32 556.422 125.094 558.735 126.812C562.128 129.344 563.825 133.525 565.884 137.271C568.598 142.289 573.021 146.561 574.972 151.929C575.855 154.366 576.741 156.8 577.63 159.23C579.367 163.993 581.103 168.779 583.461 173.271C586.742 179.521 591.181 185.138 593.811 191.704C594.072 192.362 594.562 192.903 595.191 193.229C598.775 198.285 601.961 203.611 604.721 209.158C606.174 212.091 607.549 215.137 607.973 218.386C608.304 221.278 608.064 224.208 607.266 227.008C606.815 228.672 606.261 230.306 605.609 231.902C605.354 232.46 605.165 233.046 605.043 233.648C605.043 233.71 605.043 233.772 605.043 233.834C604.93 234.919 605.343 235.993 605.456 237.078C605.551 237.951 605.452 238.835 605.168 239.666C605.122 239.796 605.071 239.926 605.02 240.056C604.67 240.716 604.373 241.404 604.133 242.112C604.112 242.198 604.097 242.285 604.087 242.372C603.901 243.598 604.387 244.836 604.653 246.062C605.648 250.492 605.467 255.103 605.218 259.624C605.088 261.884 606.915 263.698 608.442 265.365C611.27 268.489 613.481 272.145 615.613 275.784C616.777 277.632 617.756 279.589 618.537 281.627C619.346 283.955 619.669 286.419 620.115 288.831C621.557 296.29 626.269 302.879 627.547 310.354C628.14 313.778 629.65 316.977 631.919 319.61C632.602 320.315 633.231 321.071 633.802 321.87C634.196 322.507 634.509 323.191 634.735 323.905C635.291 325.566 635.553 327.312 635.51 329.064C635.42 329.902 635.468 330.749 635.651 331.572C636.183 333.307 638.083 334.262 638.869 335.895C639.655 337.528 639.112 339.619 639.435 341.472C639.688 342.967 640.496 344.31 641.697 345.236C641.245 345.631 640.769 345.993 640.283 346.366C640.733 346.715 641.128 347.13 641.454 347.598C641.677 347.91 641.866 348.246 642.019 348.598C642.766 350.332 642.789 352.395 643.399 354.248C643.66 355.017 644.027 355.83 643.801 356.61C643.704 356.834 643.639 357.069 643.609 357.311C643.609 357.819 644.14 358.153 644.344 358.616C644.418 358.849 644.43 359.097 644.378 359.336C644.327 359.575 644.213 359.796 644.05 359.978V359.978Z" fill="url(#paint0_linear)"/>
<path d="M524.355 139.605C527.816 138.673 530.898 136.724 533.918 134.797L544.443 128.101C541.587 127.875 539.121 125.841 537.657 123.377C536.192 120.913 535.587 118.048 535.089 115.234C530.565 116.997 526.645 119.987 522.992 123.145C521.544 124.394 518.467 126.281 518.021 128.231C517.574 130.18 520.424 131.762 521.527 133.068C521.906 133.503 525.475 139.295 524.355 139.605Z" fill="#FBBEBE"/>
<path opacity="0.1" d="M524.355 139.605C527.816 138.673 530.898 136.724 533.918 134.797L544.443 128.101C541.587 127.875 539.121 125.841 537.657 123.377C536.192 120.913 535.587 118.048 535.089 115.234C530.565 116.997 526.645 119.987 522.992 123.145C521.544 124.394 518.467 126.281 518.021 128.231C517.574 130.18 520.424 131.762 521.527 133.068C521.906 133.503 525.475 139.295 524.355 139.605Z" fill="black"/>
<path d="M466.843 194.914C464.988 195.864 463.014 196.836 460.938 196.7C459.072 196.581 457.37 195.57 455.967 194.332C454.836 193.349 453.671 192.123 452.184 192.225C451.188 192.292 450.351 192.965 449.582 193.603L445.482 197.033C444.792 197.497 444.27 198.171 443.994 198.955C443.913 199.486 443.946 200.03 444.09 200.548C444.277 201.463 444.588 202.531 445.47 202.842C446.353 203.153 447.314 202.486 448.247 202.232C448.817 202.086 449.416 202.097 449.98 202.263C450.545 202.429 451.054 202.744 451.454 203.175C451.787 203.503 451.989 203.941 452.02 204.407C452.02 205.43 450.888 206.102 449.848 206.153C448.807 206.204 447.812 205.865 446.782 205.927C446.72 205.919 446.657 205.924 446.597 205.941C446.537 205.958 446.48 205.987 446.431 206.026C446.382 206.065 446.342 206.113 446.312 206.168C446.282 206.223 446.263 206.283 446.256 206.345C446.193 206.702 446.22 207.07 446.335 207.413C446.451 207.757 446.651 208.066 446.918 208.312C447.456 208.802 448.081 209.185 448.762 209.442C449.553 209.833 450.407 210.081 451.284 210.177C453.021 210.29 454.615 209.329 456.261 208.77C458.478 208.024 460.865 208.001 463.206 208.007C465.548 208.012 467.923 208.046 470.168 207.391C472.414 206.735 474.546 205.283 475.422 203.119C475.526 202.917 475.56 202.687 475.518 202.464C475.431 202.225 475.263 202.026 475.043 201.898C471.888 199.565 470.609 196.728 467.058 195.05L466.843 194.914Z" fill="#FBBEBE"/>
<path opacity="0.1" d="M466.843 194.914C464.988 195.864 463.014 196.836 460.938 196.7C459.072 196.581 457.37 195.57 455.967 194.332C454.836 193.349 453.671 192.123 452.184 192.225C451.188 192.292 450.351 192.965 449.582 193.603L445.482 197.033C444.792 197.497 444.27 198.171 443.994 198.955C443.913 199.486 443.946 200.03 444.09 200.548C444.277 201.463 444.588 202.531 445.47 202.842C446.353 203.153 447.314 202.486 448.247 202.232C448.817 202.086 449.416 202.097 449.98 202.263C450.545 202.429 451.054 202.744 451.454 203.175C451.787 203.503 451.989 203.941 452.02 204.407C452.02 205.43 450.888 206.102 449.848 206.153C448.807 206.204 447.812 205.865 446.782 205.927C446.72 205.919 446.657 205.924 446.597 205.941C446.537 205.958 446.48 205.987 446.431 206.026C446.382 206.065 446.342 206.113 446.312 206.168C446.282 206.223 446.263 206.283 446.256 206.345C446.193 206.702 446.22 207.07 446.335 207.413C446.451 207.757 446.651 208.066 446.918 208.312C447.456 208.802 448.081 209.185 448.762 209.442C449.553 209.833 450.407 210.081 451.284 210.177C453.021 210.29 454.615 209.329 456.261 208.77C458.478 208.024 460.865 208.001 463.206 208.007C465.548 208.012 467.923 208.046 470.168 207.391C472.414 206.735 474.546 205.283 475.422 203.119C475.526 202.917 475.56 202.687 475.518 202.464C475.431 202.225 475.263 202.026 475.043 201.898C471.888 199.565 470.609 196.728 467.058 195.05L466.843 194.914Z" fill="black"/>
<path d="M533.07 134.647C532.192 134.082 531.196 133.725 530.159 133.604C529.122 133.484 528.07 133.603 527.086 133.952C525.116 134.662 523.348 135.839 521.934 137.382C520.522 138.82 519.3 140.433 518.297 142.18C517.336 143.875 516.601 145.649 515.639 147.339C513.943 150.362 511.726 153.029 509.497 155.673C508.112 157.318 506.709 158.985 504.933 160.194C503.157 161.403 501.172 162.143 499.968 163.821C499.589 164.353 499.317 164.952 498.944 165.488C497.762 167.217 495.754 168.144 494.007 169.302C488.996 172.636 485.88 178.185 481.197 181.965C479.178 183.593 476.898 184.87 474.913 186.531C473.064 188.074 471.52 189.921 469.676 191.504C467.833 193.086 465.666 194.391 463.263 194.538C464.869 198.115 466.786 201.624 469.541 204.41C472.295 207.195 476.423 208.975 480.184 207.885C481.519 207.5 482.826 206.687 483.335 205.398C483.495 204.736 483.718 204.091 484.002 203.472C484.38 202.974 484.87 202.573 485.433 202.302C500.53 193.497 514.922 183.535 528.477 172.506C532.114 169.545 535.722 166.895 539.455 164.03C540.793 163.082 542.031 161.999 543.148 160.798C544.705 158.941 545.677 156.665 545.943 154.257C546.208 151.849 545.756 149.417 544.641 147.265C543.64 145.619 542.493 144.067 541.214 142.626C538.886 139.599 536.145 136.913 533.07 134.647V134.647Z" fill="#F50057"/>
<path opacity="0.1" d="M533.07 134.647C532.192 134.082 531.196 133.725 530.159 133.604C529.122 133.484 528.07 133.603 527.086 133.952C525.116 134.662 523.348 135.839 521.934 137.382C520.522 138.82 519.3 140.433 518.297 142.18C517.336 143.875 516.601 145.649 515.639 147.339C513.943 150.362 511.726 153.029 509.497 155.673C508.112 157.318 506.709 158.985 504.933 160.194C503.157 161.403 501.172 162.143 499.968 163.821C499.589 164.353 499.317 164.952 498.944 165.488C497.762 167.217 495.754 168.144 494.007 169.302C488.996 172.636 485.88 178.185 481.197 181.965C479.178 183.593 476.898 184.87 474.913 186.531C473.064 188.074 471.52 189.921 469.676 191.504C467.833 193.086 465.666 194.391 463.263 194.538C464.869 198.115 466.786 201.624 469.541 204.41C472.295 207.195 476.423 208.975 480.184 207.885C481.519 207.5 482.826 206.687 483.335 205.398C483.495 204.736 483.718 204.091 484.002 203.472C484.38 202.974 484.87 202.573 485.433 202.302C500.53 193.497 514.922 183.535 528.477 172.506C532.114 169.545 535.722 166.895 539.455 164.03C540.793 163.082 542.031 161.999 543.148 160.798C544.705 158.941 545.677 156.665 545.943 154.257C546.208 151.849 545.756 149.417 544.641 147.265C543.64 145.619 542.493 144.067 541.214 142.626C538.886 139.599 536.145 136.913 533.07 134.647V134.647Z" fill="black"/>
<path d="M508.768 344.271C507.778 344.836 506.562 345.153 505.867 346.068C505.64 346.362 505.488 346.707 505.244 346.989C504.492 347.871 503.158 347.91 502.111 348.413C501.274 348.809 500.596 349.543 499.708 349.775C499.176 349.901 498.629 349.943 498.084 349.899L492.587 349.735C490.845 349.685 488.804 349.775 487.791 351.193C487.462 351.713 487.229 352.287 487.101 352.888C486.677 354.51 486.332 356.347 487.22 357.771C488.283 359.466 490.613 359.81 492.621 359.923C500.377 360.352 508.155 360.201 515.888 359.471C516.935 359.338 517.99 359.294 519.044 359.341C519.881 359.409 520.701 359.596 521.527 359.737C525.695 360.443 529.959 360.031 534.167 359.613C534.878 359.578 535.579 359.43 536.243 359.172C536.573 359.037 536.865 358.824 537.095 358.552C537.324 358.279 537.484 357.955 537.56 357.607C537.736 356.443 536.644 355.454 536.525 354.284C536.441 353.459 536.837 352.538 536.384 351.837C536.215 351.631 536.025 351.442 535.819 351.272C535.061 350.487 534.84 349.34 534.653 348.266L533.664 342.463C533.636 342.054 533.468 341.667 533.189 341.367C532.981 341.217 532.741 341.119 532.487 341.079C528.178 340.107 523.761 340.994 519.48 341.536C517.276 341.859 515.047 341.971 512.823 341.87C511.861 341.808 511.488 341.695 510.77 342.322C510.052 342.949 509.667 343.746 508.768 344.271Z" fill="#3F3D56"/>
<path d="M612.836 351.253C612.08 351.675 611.269 351.993 610.427 352.196C608.206 352.844 605.989 353.52 603.776 354.225C603.187 354.37 602.635 354.636 602.153 355.005C601.384 355.683 601.186 356.79 601.129 357.83C601.056 358.403 601.124 358.985 601.327 359.525C601.592 360.032 601.981 360.463 602.458 360.779C604.992 362.695 608.301 363.288 611.479 363.288C614.657 363.288 617.813 362.752 620.992 362.667C624.832 362.565 628.774 363.108 632.467 362.034C633.172 361.774 633.904 361.595 634.65 361.503C635.146 361.495 635.641 361.527 636.132 361.599C638.112 361.794 640.112 361.612 642.025 361.062C642.6 360.935 643.136 360.669 643.586 360.288C643.808 360.095 643.967 359.84 644.042 359.556C644.117 359.271 644.104 358.971 644.004 358.694C643.801 358.237 643.28 357.903 643.275 357.4C643.302 357.159 643.364 356.923 643.461 356.7C643.693 355.926 643.32 355.118 643.06 354.355C642.33 352.174 642.449 349.665 641.143 347.772C639.836 345.879 637.438 345.099 635.159 344.8C633.306 344.538 631.423 344.592 629.588 344.958C627.524 345.399 625.595 346.32 623.571 346.907C621.221 347.582 618.766 347.814 616.332 347.591C614.714 347.455 615.268 347.71 614.72 349.066C614.331 349.97 613.673 350.733 612.836 351.253V351.253Z" fill="#3F3D56"/>
<path d="M522.466 131.766C531.524 131.766 538.867 124.429 538.867 115.379C538.867 106.329 531.524 98.9922 522.466 98.9922C513.408 98.9922 506.064 106.329 506.064 115.379C506.064 124.429 513.408 131.766 522.466 131.766Z" fill="#FBBEBE"/>
<path d="M641.369 345.398C636.279 349.766 629.407 351.676 622.705 351.744C619.878 351.772 616.942 351.467 614.533 350.003C614.363 349.077 614.295 348.077 614.126 347.15C611.202 346.54 608.934 344.161 607.52 341.528C606.106 338.894 605.388 335.967 604.336 333.176C602.73 328.927 600.377 325.011 598.024 321.123C595.864 317.541 593.698 313.947 591.238 310.562C589.609 308.302 587.844 306.178 586.232 303.923C581.666 297.647 578.389 290.53 576.59 282.982C576.315 281.534 575.923 280.112 575.419 278.727C574.446 276.365 572.665 274.444 571.29 272.291C569.808 269.968 568.792 267.379 568.299 264.668C568.021 263.131 567.546 261.47 566.002 261.312C562.756 267.612 559.448 274.014 554.539 279.139C553.767 279.879 553.061 280.685 552.429 281.547C551.922 282.384 551.469 283.252 551.072 284.146C550.31 285.749 549.298 287.222 548.074 288.508C547.048 289.605 545.695 290.342 544.217 290.61C545.308 296.04 544.658 301.674 542.362 306.714C541.678 308.206 540.858 309.63 540.213 311.139C537.577 317.354 538.188 324.367 537.911 331.108C537.887 332.521 537.72 333.927 537.413 335.306C536.729 338.064 535.315 340.996 535.999 343.754C528.907 346.461 521.029 346.291 513.518 345.15C512.049 345.015 510.623 344.583 509.328 343.878C508.263 343.125 507.333 342.196 506.579 341.132C506.288 340.822 506.073 340.449 505.951 340.041C505.657 338.753 507.082 337.781 507.744 336.651C508.406 335.521 508.525 333.73 507.614 332.803C508.067 325.406 510.114 318.185 510.566 310.766C510.747 307.828 510.674 304.878 510.809 301.934C510.945 298.99 511.262 296.125 511.59 293.232C512.336 286.626 514.146 280.151 513.892 273.511C513.814 271.468 514.285 269.441 515.255 267.641C516.072 266.272 516.999 264.972 518.026 263.753C521.499 259.272 525.672 254.78 526.911 249.248C527.55 246.394 528.964 243.784 530.366 241.218C531.198 239.687 532.063 238.122 533.387 236.997C534.107 236.5 534.775 235.932 535.383 235.302C536.311 234.11 536.344 232.477 536.893 231.053C537.176 230.318 537.611 229.64 537.821 228.883C537.993 228.047 538.078 227.194 538.075 226.34C538.256 223.606 539.308 220.961 540.416 218.458C537.81 216.95 535.508 214.968 533.63 212.615C532.999 211.851 532.449 211.023 531.99 210.146C530.825 207.852 530.559 205.235 530.01 202.721C528.704 196.72 525.701 191.075 525.282 184.944C525.158 183.074 525.282 181.141 524.632 179.373C524.332 178.624 523.98 177.897 523.58 177.197C523.186 176.509 522.885 175.772 522.686 175.005C522.324 173.338 522.822 171.614 522.686 169.919C522.55 168.422 521.911 167.021 521.595 165.557C521.271 163.653 521.216 161.713 521.431 159.793C521.572 157.533 522.064 155.2 521.872 152.968C521.56 149.274 522.031 145.557 523.254 142.058C524.477 138.558 526.425 135.356 528.97 132.659L529.1 132.529C530.18 131.399 531.362 130.399 532.335 129.201C533.658 127.596 534.597 125.709 535.994 124.15C536.605 123.455 537.295 122.833 537.9 122.132C538.455 121.397 539.07 120.709 539.738 120.075C540.076 119.762 540.485 119.536 540.931 119.416C541.377 119.297 541.845 119.289 542.294 119.392C542.408 120.234 542.672 121.05 543.075 121.799C544.251 121.889 545.297 122.053 546.468 122.144C547.011 122.169 547.549 122.253 548.074 122.392C549.177 122.726 550.059 123.522 551.004 124.206C553.357 125.862 556.247 126.63 558.56 128.337C561.953 130.851 563.65 135.004 565.697 138.728C568.406 143.718 572.823 147.961 574.746 153.295L577.398 160.551C579.135 165.286 580.871 170.038 583.224 174.502C586.498 180.718 590.932 186.317 593.562 192.821C593.825 193.473 594.312 194.011 594.936 194.335C598.517 199.353 601.7 204.643 604.455 210.157C605.908 213.073 607.283 216.102 607.701 219.328C608.318 223.888 607.073 228.499 605.343 232.759C605.063 233.369 604.873 234.016 604.777 234.681C604.664 235.76 605.077 236.822 605.19 237.901C605.299 238.909 605.149 239.928 604.755 240.862C604.403 241.519 604.106 242.203 603.867 242.908C603.561 244.208 604.104 245.53 604.398 246.829C605.394 251.231 605.213 255.791 604.964 260.3C604.834 262.561 606.66 264.352 608.182 266.008C611.01 269.11 613.215 272.737 615.347 276.359C616.507 278.196 617.484 280.142 618.266 282.168C619.074 284.479 619.397 286.926 619.844 289.327C621.28 296.735 625.986 303.284 627.264 310.715C627.856 314.119 629.365 317.298 631.63 319.908C632.312 320.615 632.942 321.37 633.513 322.169C633.904 322.803 634.215 323.482 634.441 324.192C634.997 325.842 635.259 327.576 635.216 329.317C635.126 330.149 635.174 330.991 635.357 331.809C635.889 333.532 637.789 334.481 638.569 336.103C639.35 337.725 638.813 339.804 639.135 341.646C639.378 343.134 640.177 344.474 641.369 345.398V345.398Z" fill="#F50057"/>
<path d="M470.236 189.828C468.381 190.778 466.407 191.75 464.332 191.614C462.465 191.495 460.763 190.484 459.36 189.246C458.229 188.263 457.064 187.037 455.577 187.139C454.582 187.207 453.744 187.879 452.975 188.517L448.875 191.947C448.185 192.411 447.663 193.085 447.388 193.869C447.307 194.401 447.339 194.944 447.484 195.462C447.67 196.377 447.981 197.445 448.864 197.756C449.746 198.067 450.707 197.4 451.641 197.146C452.211 197 452.809 197.011 453.374 197.177C453.938 197.343 454.447 197.659 454.847 198.09C455.181 198.417 455.382 198.855 455.413 199.321C455.413 200.344 454.282 201.017 453.241 201.067C452.2 201.118 451.205 200.779 450.176 200.841C450.114 200.834 450.051 200.838 449.99 200.855C449.93 200.872 449.874 200.901 449.825 200.94C449.776 200.979 449.735 201.027 449.705 201.082C449.675 201.137 449.656 201.197 449.65 201.26C449.586 201.616 449.613 201.984 449.729 202.327C449.844 202.671 450.045 202.98 450.312 203.226C450.849 203.716 451.475 204.1 452.155 204.356C452.946 204.747 453.8 204.996 454.678 205.091C456.414 205.204 458.009 204.243 459.655 203.684C461.872 202.938 464.258 202.915 466.6 202.921C468.941 202.926 471.316 202.96 473.562 202.305C475.807 201.649 477.939 200.197 478.816 198.033C478.919 197.831 478.953 197.601 478.912 197.378C478.825 197.14 478.656 196.94 478.437 196.813C475.281 194.479 474.003 191.642 470.451 189.964L470.236 189.828Z" fill="#FBBEBE"/>
<path d="M514.485 105.31C513.507 105.468 512.676 106.129 511.748 106.496C511.126 106.738 510.459 106.845 509.792 106.81C509.125 106.775 508.473 106.598 507.88 106.293C507.466 106.092 507.104 105.798 506.822 105.434C506.064 104.383 506.33 102.857 506.794 101.626C508.988 95.7998 514.847 92.1947 520.65 91.963C526.453 91.7314 532.097 94.438 536.672 98.3086C538.033 99.4255 539.254 100.702 540.309 102.111C542.696 105.417 543.776 109.638 544.092 113.819C544.282 115.574 544.165 117.348 543.747 119.063C543.547 119.897 543.18 120.681 542.669 121.369C542.157 122.058 541.513 122.636 540.773 123.069C539.155 123.894 537.215 123.635 535.581 122.843C533.946 122.052 532.544 120.804 531.141 119.611C530.506 118.999 529.754 118.521 528.93 118.204C528.519 118.058 528.075 118.034 527.65 118.134C527.226 118.234 526.839 118.455 526.538 118.769C525.78 119.679 525.972 121.171 525.282 122.16C524.592 123.149 523.156 123.29 521.945 123.29C520.735 123.29 519.508 123.188 518.784 122.228C518.122 121.357 518.218 120.086 518.467 118.99C518.716 117.894 519.14 116.809 519.033 115.684C518.801 113.424 516.821 112.034 516.205 109.954C515.803 108.593 516.686 108.016 516.595 106.785C516.527 105.7 515.362 105.168 514.485 105.31Z" fill="#3F3D56"/>
<path opacity="0.1" d="M566.014 261.166V261.307C562.767 267.608 559.459 274.01 554.55 279.135C553.778 279.875 553.072 280.68 552.44 281.542C551.933 282.379 551.48 283.247 551.083 284.141C550.321 285.745 549.31 287.217 548.085 288.504L543.991 290.549L556.999 222.742L566.014 261.166Z" fill="black"/>
<path opacity="0.1" d="M547.107 158.539C545.99 159.74 544.752 160.823 543.414 161.771C539.681 164.597 536.062 167.264 532.436 170.247C529.514 172.624 526.551 174.952 523.546 177.231C523.152 176.544 522.851 175.806 522.652 175.039C522.29 173.372 522.788 171.649 522.652 169.953C522.517 168.456 521.877 167.055 521.561 165.591C521.237 163.687 521.182 161.747 521.397 159.828C521.538 157.567 522.03 155.234 521.838 153.002C521.525 149.3 521.998 145.573 523.227 142.066C524.457 138.56 526.413 135.352 528.97 132.654L529.1 132.524C529.708 132.17 530.353 131.883 531.023 131.665C532.009 131.32 533.061 131.205 534.099 131.331C535.136 131.456 536.131 131.818 537.006 132.388C540.081 134.654 542.823 137.34 545.15 140.367C546.43 141.808 547.577 143.36 548.577 145.006C549.695 147.155 550.152 149.587 549.89 151.995C549.628 154.403 548.66 156.68 547.107 158.539V158.539Z" fill="black"/>
<path d="M536.463 129.565C535.586 129 534.59 128.643 533.552 128.522C532.515 128.402 531.464 128.521 530.48 128.87C528.509 129.58 526.741 130.757 525.327 132.3C523.916 133.738 522.694 135.35 521.691 137.098C520.729 138.793 519.994 140.567 519.033 142.257C517.336 145.28 515.119 147.947 512.891 150.591C511.505 152.236 510.103 153.902 508.327 155.112C506.551 156.321 504.566 157.061 503.361 158.739C502.982 159.271 502.711 159.869 502.337 160.406C501.155 162.135 499.148 163.062 497.4 164.22C492.389 167.554 489.273 173.103 484.59 176.883C482.571 178.511 480.292 179.788 478.307 181.449C476.457 182.992 474.913 184.839 473.07 186.422C471.226 188.004 469.06 189.309 466.656 189.456C468.262 193.033 470.18 196.542 472.934 199.327C475.688 202.113 479.817 203.893 483.578 202.803C484.913 202.418 486.219 201.605 486.728 200.316C486.888 199.654 487.112 199.009 487.395 198.389C487.773 197.892 488.264 197.491 488.826 197.22C503.924 188.415 518.315 178.453 531.871 167.424C535.507 164.463 539.116 161.813 542.848 158.948C544.187 158 545.424 156.917 546.542 155.716C548.098 153.859 549.071 151.583 549.336 149.175C549.602 146.767 549.149 144.335 548.035 142.183C547.034 140.537 545.887 138.985 544.607 137.544C542.28 134.517 539.538 131.831 536.463 129.565V129.565Z" fill="#F50057"/>
<g opacity="0.1">
<path opacity="0.1" d="M523.076 121.016C521.945 121.016 520.639 120.914 519.915 119.953C519.259 119.083 519.349 117.812 519.598 116.716C519.847 115.619 520.271 114.534 520.164 113.41C519.932 111.15 517.952 109.76 517.336 107.68C516.934 106.318 517.817 105.742 517.726 104.51C517.647 103.442 516.488 102.911 515.611 103.052C514.633 103.211 513.801 103.872 512.874 104.239C512.251 104.481 511.585 104.588 510.918 104.552C510.251 104.517 509.599 104.341 509.005 104.036C508.591 103.835 508.229 103.541 507.948 103.177C507.19 102.126 507.456 100.6 507.919 99.3683C507.919 99.323 507.959 99.2835 507.976 99.2383C507.503 99.9944 507.105 100.795 506.788 101.628C506.325 102.86 506.059 104.386 506.817 105.437C507.098 105.801 507.46 106.095 507.874 106.296C508.468 106.601 509.12 106.778 509.787 106.813C510.453 106.848 511.12 106.741 511.743 106.499C512.67 106.132 513.501 105.471 514.48 105.313C515.357 105.171 516.516 105.703 516.595 106.771C516.686 108.002 515.803 108.579 516.205 109.94C516.81 112.02 518.789 113.433 519.033 115.67C519.146 116.8 518.733 117.885 518.467 118.976C518.201 120.066 518.128 121.343 518.784 122.214C519.508 123.174 520.803 123.265 521.945 123.276C523.088 123.287 524.558 123.208 525.282 122.146C525.595 121.612 525.8 121.023 525.887 120.411C525.118 120.959 524.044 121.027 523.076 121.016Z" fill="black"/>
<path opacity="0.1" d="M541.904 120.813C540.286 121.638 538.346 121.378 536.712 120.587C535.077 119.796 533.675 118.547 532.272 117.354C531.637 116.742 530.885 116.264 530.061 115.947C529.65 115.801 529.206 115.777 528.781 115.877C528.357 115.977 527.97 116.198 527.669 116.513C527.284 117.08 527.042 117.731 526.962 118.411C527.256 118.238 527.584 118.13 527.923 118.094C528.263 118.058 528.606 118.095 528.93 118.202C529.754 118.518 530.506 118.997 531.141 119.609C532.544 120.801 533.969 122.056 535.581 122.841C537.193 123.627 539.155 123.892 540.773 123.067C542.203 122.231 543.246 120.864 543.674 119.264C543.209 119.908 542.604 120.438 541.904 120.813V120.813Z" fill="black"/>
</g>
<path d="M401.153 363.724C410.524 363.724 418.12 356.134 418.12 346.772C418.12 337.41 410.524 329.82 401.153 329.82C391.783 329.82 384.186 337.41 384.186 346.772C384.186 356.134 391.783 363.724 401.153 363.724Z" fill="#3F3D56"/>
<path opacity="0.1" d="M401.153 363.724C410.524 363.724 418.12 356.134 418.12 346.772C418.12 337.41 410.524 329.82 401.153 329.82C391.783 329.82 384.186 337.41 384.186 346.772C384.186 356.134 391.783 363.724 401.153 363.724Z" fill="black"/>
<path d="M401.153 357.507C407.088 357.507 411.899 352.701 411.899 346.771C411.899 340.842 407.088 336.035 401.153 336.035C395.218 336.035 390.407 340.842 390.407 346.771C390.407 352.701 395.218 357.507 401.153 357.507Z" fill="#65617D"/>
<path opacity="0.1" d="M401.153 357.507C407.088 357.507 411.899 352.701 411.899 346.771C411.899 340.842 407.088 336.035 401.153 336.035C395.218 336.035 390.407 340.842 390.407 346.771C390.407 352.701 395.218 357.507 401.153 357.507Z" fill="black"/>
<path d="M388.145 320.219L399.275 345.364C399.441 345.741 399.711 346.062 400.054 346.291C400.397 346.519 400.798 346.645 401.21 346.654C401.622 346.662 402.028 346.552 402.379 346.338C402.731 346.123 403.014 345.813 403.195 345.443L416.423 318.523L388.145 320.219Z" fill="#3F3D56"/>
<path opacity="0.1" d="M388.145 320.219L399.275 345.364C399.441 345.741 399.711 346.062 400.054 346.291C400.397 346.519 400.798 346.645 401.21 346.654C401.622 346.662 402.028 346.552 402.379 346.338C402.731 346.123 403.014 345.813 403.195 345.443L416.423 318.523L388.145 320.219Z" fill="black"/>
<path d="M295.393 363.724C304.764 363.724 312.36 356.134 312.36 346.772C312.36 337.41 304.764 329.82 295.393 329.82C286.023 329.82 278.427 337.41 278.427 346.772C278.427 356.134 286.023 363.724 295.393 363.724Z" fill="#3F3D56"/>
<path opacity="0.1" d="M295.393 363.724C304.764 363.724 312.36 356.134 312.36 346.772C312.36 337.41 304.764 329.82 295.393 329.82C286.023 329.82 278.427 337.41 278.427 346.772C278.427 356.134 286.023 363.724 295.393 363.724Z" fill="black"/>
<path d="M295.393 357.507C301.328 357.507 306.139 352.701 306.139 346.771C306.139 340.842 301.328 336.035 295.393 336.035C289.459 336.035 284.648 340.842 284.648 346.771C284.648 352.701 289.459 357.507 295.393 357.507Z" fill="#65617D"/>
<path opacity="0.1" d="M295.393 357.507C301.328 357.507 306.139 352.701 306.139 346.771C306.139 340.842 301.328 336.035 295.393 336.035C289.459 336.035 284.648 340.842 284.648 346.771C284.648 352.701 289.459 357.507 295.393 357.507Z" fill="black"/>
<path d="M282.386 320.219L293.516 345.364C293.682 345.741 293.952 346.062 294.294 346.291C294.637 346.519 295.038 346.645 295.45 346.654C295.862 346.662 296.268 346.552 296.62 346.338C296.971 346.123 297.254 345.813 297.435 345.443L310.664 318.523L282.386 320.219Z" fill="#3F3D56"/>
<path opacity="0.1" d="M282.386 320.219L293.516 345.364C293.682 345.741 293.952 346.062 294.294 346.291C294.637 346.519 295.038 346.645 295.45 346.654C295.862 346.662 296.268 346.552 296.62 346.338C296.971 346.123 297.254 345.813 297.435 345.443L310.664 318.523L282.386 320.219Z" fill="black"/>
<path d="M456.216 199.147C456.17 198.719 456.016 198.31 455.77 197.956C455.524 197.603 455.193 197.317 454.808 197.124C454.483 196.986 454.134 196.915 453.781 196.914C453.429 196.913 453.079 196.984 452.754 197.121C452.429 197.258 452.135 197.459 451.889 197.712C451.644 197.965 451.451 198.265 451.324 198.594L441.591 222.739L438.763 331.23H443.287L444.984 222.97L455.979 200.786C456.229 200.278 456.312 199.705 456.216 199.147V199.147Z" fill="#3F3D56"/>
<path d="M256.087 322.757L271.357 313.151L436.218 311.738L440.459 322.757H256.087Z" fill="#F50057"/>
<path d="M256.087 332.928V322.757L443.446 320.949L443.265 327.843H259.481V332.928H256.087Z" fill="#3F3D56"/>
<path d="M279.841 369.657C289.211 369.657 296.807 362.068 296.807 352.706C296.807 343.343 289.211 335.754 279.841 335.754C270.47 335.754 262.874 343.343 262.874 352.706C262.874 362.068 270.47 369.657 279.841 369.657Z" fill="#3F3D56"/>
<path d="M279.841 363.441C285.775 363.441 290.586 358.634 290.586 352.705C290.586 346.775 285.775 341.969 279.841 341.969C273.906 341.969 269.095 346.775 269.095 352.705C269.095 358.634 273.906 363.441 279.841 363.441Z" fill="#65617D"/>
<path d="M266.833 326.144L277.963 351.289C278.129 351.666 278.399 351.988 278.742 352.217C279.084 352.445 279.485 352.571 279.897 352.579C280.309 352.588 280.715 352.478 281.067 352.264C281.419 352.049 281.701 351.739 281.882 351.369L295.111 324.449L266.833 326.144Z" fill="#3F3D56"/>
<path d="M411.616 369.657C420.986 369.657 428.583 362.068 428.583 352.706C428.583 343.343 420.986 335.754 411.616 335.754C402.245 335.754 394.649 343.343 394.649 352.706C394.649 362.068 402.245 369.657 411.616 369.657Z" fill="#3F3D56"/>
<path d="M411.616 363.441C417.551 363.441 422.362 358.634 422.362 352.705C422.362 346.775 417.551 341.969 411.616 341.969C405.681 341.969 400.87 346.775 400.87 352.705C400.87 358.634 405.681 363.441 411.616 363.441Z" fill="#65617D"/>
<path d="M398.608 326.144L409.738 351.289C409.904 351.666 410.174 351.988 410.517 352.217C410.86 352.445 411.261 352.571 411.673 352.579C412.085 352.588 412.49 352.478 412.842 352.264C413.194 352.049 413.477 351.739 413.658 351.369L426.886 324.449L398.608 326.144Z" fill="#3F3D56"/>
<path d="M347.991 278.398H277.296V317.387H347.991V278.398Z" fill="#65617D"/>
<path opacity="0.1" d="M323.672 285.18H302.18V289.7H323.672V285.18Z" fill="black"/>
<path opacity="0.1" d="M320.985 285.746H304.867V289.136H320.985V285.746Z" fill="black"/>
<path d="M419.817 278.398H349.122V317.387H419.817V278.398Z" fill="#65617D"/>
<path opacity="0.1" d="M395.498 285.18H374.006V289.7H395.498V285.18Z" fill="black"/>
<path opacity="0.1" d="M392.811 285.746H376.693V289.136H392.811V285.746Z" fill="black"/>
<path d="M347.991 238.277H277.296V277.266H347.991V238.277Z" fill="#65617D"/>
<path opacity="0.1" d="M323.672 245.062H302.18V249.583H323.672V245.062Z" fill="black"/>
<path opacity="0.1" d="M320.985 245.629H304.867V249.019H320.985V245.629Z" fill="black"/>
<path d="M419.817 238.277H349.122V277.266H419.817V238.277Z" fill="#65617D"/>
<path opacity="0.1" d="M395.498 245.062H374.006V249.583H395.498V245.062Z" fill="black"/>
<path opacity="0.1" d="M392.811 245.629H376.693V249.019H392.811V245.629Z" fill="black"/>
<path d="M347.991 197.598H277.296V236.587H347.991V197.598Z" fill="#65617D"/>
<path opacity="0.1" d="M323.672 204.379H302.18V208.899H323.672V204.379Z" fill="black"/>
<path opacity="0.1" d="M320.985 204.941H304.867V208.332H320.985V204.941Z" fill="black"/>
<path d="M419.817 197.598H349.122V236.587H419.817V197.598Z" fill="#65617D"/>
<path opacity="0.1" d="M395.498 204.379H374.006V208.899H395.498V204.379Z" fill="black"/>
<path opacity="0.1" d="M392.811 204.941H376.693V208.332H392.811V204.941Z" fill="black"/>
<path d="M419.817 156.91H349.122V195.899H419.817V156.91Z" fill="#65617D"/>
<path opacity="0.1" d="M395.498 163.691H374.006V168.212H395.498V163.691Z" fill="black"/>
<path opacity="0.1" d="M392.811 164.258H376.693V167.648H392.811V164.258Z" fill="black"/>
</g>
<defs>
<linearGradient id="paint0_linear" x1="544.144" y1="363.238" x2="544.144" y2="90.236" gradientUnits="userSpaceOnUse">
<stop stop-color="#808080" stop-opacity="0.25"/>
<stop offset="0.54" stop-color="#808080" stop-opacity="0.12"/>
<stop offset="1" stop-color="#808080" stop-opacity="0.1"/>
</linearGradient>
<clipPath id="clip0">
<rect width="647" height="368" fill="white"/>
</clipPath>
</defs>
</svg>
